# xmcd
#
# Track frame offsets: 
#        150
#        22083
#        39731
#        62015
#        74209
#        88814
#        103716
#        123736
#
# Disc length: 2372 seconds
#
# Revision: 1
# Processed by: cddbd v1.5.2PL0 Copyright (c) Steve Scherf et al.
# Submitted via: ExactAudioCopyFreeDBPlugin 1.0
#
DISCID=7b094208
DTITLE=Davy Knowles - Three Miles from Avalon
DYEAR=2016
DGENRE=Blues
TTITLE0=Ain't Much of Nothin'
TTITLE1=What You're Made Of
TTITLE2=Falling Apart
TTITLE3=Never Gonna Be the Same
TTITLE4=Gov't Row
TTITLE5=Oxford, MS
TTITLE6=Three Miles from Avalon
TTITLE7=What in the World
EXTD=
EXTT0=
EXTT1=
EXTT2=
EXTT3=
EXTT4=
EXTT5=
EXTT6=
EXTT7=
PLAYORDER=
